SplineFontDB: 3.2
FontName: hiContr_Lite_SemiBold
FullName: hiContr Lite SemiBold
FamilyName: hiContr Lite
Weight: SemiBold
Copyright: Copyright (c) 2022, RandomMaerks (aka Bao Nguyen) (rmforbusiness@gmail.com)
UComments: "2022-1-20: Created with FontForge (http://fontforge.org)"
Version: 1.0
ItalicAngle: 0
UnderlinePosition: -100
UnderlineWidth: 50
Ascent: 800
Descent: 200
InvalidEm: 0
LayerCount: 2
Layer: 0 0 "Back" 1
Layer: 1 0 "Fore" 0
XUID: [1021 301 932173752 22486]
FSType: 0
OS2Version: 0
OS2_WeightWidthSlopeOnly: 0
OS2_UseTypoMetrics: 1
CreationTime: 1642688090
ModificationTime: 1642688368
PfmFamily: 17
TTFWeight: 600
TTFWidth: 5
LineGap: 90
VLineGap: 0
OS2TypoAscent: 0
OS2TypoAOffset: 1
OS2TypoDescent: 0
OS2TypoDOffset: 1
OS2TypoLinegap: 90
OS2WinAscent: 0
OS2WinAOffset: 1
OS2WinDescent: 0
OS2WinDOffset: 1
HheadAscent: 0
HheadAOffset: 1
HheadDescent: 0
HheadDOffset: 1
OS2Vendor: 'PfEd'
MarkAttachClasses: 1
DEI: 91125
Encoding: ISO8859-1
UnicodeInterp: none
NameList: AGL For New Fonts
DisplaySize: -48
AntiAlias: 1
FitToEm: 0
WinInfo: 0 38 14
BeginPrivate: 0
EndPrivate
BeginChars: 256 58

StartChar: n
Encoding: 110 110 0
Width: 419
Flags: HW
LayerCount: 2
Fore
SplineSet
47.5 500 m 1
 78 500 l 1
 137.833007812 402.778320312 l 1
 154.606445312 466.139648438 185.456054688 525.5 252 525.5 c 0
 334.881679389 525.5 378.25 454.457446808 378.25 340 c 2
 378.25 0 l 1
 272.75 0 l 1
 272.75 365 l 2
 272.75 435.392857143 255.677966102 474.5 213.5 474.5 c 0
 174.688679245 474.5 153 421.841463415 153 347.5 c 2
 153 0 l 1
 47.5 0 l 1
 47.5 500 l 1
EndSplineSet
EndChar

StartChar: t
Encoding: 116 116 1
Width: 362
Flags: HW
LayerCount: 2
Fore
SplineSet
199.5 650 m 1
 235 650 l 1
 235 500 l 1
 334.5 500 l 1
 334.5 462 l 1
 235 462 l 1
 235 0 l 1
 129.5 0 l 1
 129.5 462 l 1
 27.5 462 l 1
 27.5 480 l 1
 199.5 650 l 1
EndSplineSet
EndChar

StartChar: h
Encoding: 104 104 2
Width: 428
Flags: HW
LayerCount: 2
Fore
SplineSet
47.5 700 m 1
 135.5 700 l 1
 135.5 399.435546875 l 1
 153.355124081 472.963867188 192.771008403 525.5 252 525.5 c 0
 336.358778626 525.5 380.5 454.457446808 380.5 340 c 2
 380.5 0 l 1
 275 0 l 1
 275 367.5 l 2
 275 441.107142857 257.279661017 482 213.5 482 c 0
 174.688679245 482 153 426.231707317 153 347.5 c 2
 153 0 l 1
 47.5 0 l 1
 47.5 700 l 1
EndSplineSet
EndChar

StartChar: u
Encoding: 117 117 3
Width: 428
Flags: HW
LayerCount: 2
Fore
SplineSet
380.5 0 m 1
 350 0 l 1
 289.7109375 105.529296875 l 1
 272.661132812 41.8718495706 241.94921875 -18 176 -18 c 0
 91.641221374 -18 47.5 53.0425531915 47.5 167.5 c 2
 47.5 500 l 1
 153 500 l 1
 153 142.5 l 2
 153 72.1071428572 170.720338983 33 214.5 33 c 0
 253.311320755 33 275 86.6951219513 275 162.5 c 2
 275 500 l 1
 380.5 500 l 1
 380.5 0 l 1
EndSplineSet
EndChar

StartChar: m
Encoding: 109 109 4
Width: 658
Flags: HW
LayerCount: 2
Fore
SplineSet
47.5 500 m 1
 78 500 l 1
 137.833007812 402.778320312 l 1
 154.606445312 466.139648438 185.456054688 525.5 252 525.5 c 0
 312.192871094 525.5 356.091559566 475.053710938 376.16015625 421.860351562 c 1
 388.560533983 482.737304688 424.841303651 525.5 482 525.5 c 0
 566.358778626 525.5 610.5 454.457446808 610.5 340 c 2
 610.5 0 l 1
 507.5 0 l 1
 507.5 367.5 l 2
 507.5 436.285714286 489.059322034 474.5 443.5 474.5 c 0
 404.688679245 474.5 383 424.793478261 383 340 c 2
 383 0 l 1
 277.5 0 l 1
 277.5 367.5 l 2
 277.5 436.285714286 259.059322034 474.5 213.5 474.5 c 0
 174.688679245 474.5 153 421.841463415 153 347.5 c 2
 153 0 l 1
 47.5 0 l 1
 47.5 500 l 1
EndSplineSet
EndChar

StartChar: r
Encoding: 114 114 5
Width: 408
Flags: HW
LayerCount: 2
Fore
SplineSet
47.5 500 m 1
 75.5 500 l 1
 137.833007812 405.278320312 l 1
 154.973745816 468.639648438 186.498892157 528 254.5 528 c 0
 337.217557252 528 380.5 456 380.5 340 c 1
 275 320 l 1
 275 420.928571428 256.559322034 477 211 477 c 0
 173.79245283 477 153 424.341463414 153 350 c 2
 153 0 l 1
 47.5 0 l 1
 47.5 500 l 1
EndSplineSet
EndChar

StartChar: o
Encoding: 111 111 6
Width: 414
Flags: HW
LayerCount: 2
Fore
SplineSet
207.25 523 m 0
 288.269774011 523 374 461 374 335 c 2
 374 175 l 2
 374 49 288.269774011 -13 207.25 -13 c 0
 125.987288135 -13 40 49 40 175 c 2
 40 335 l 2
 40 461 125.987288135 523 207.25 523 c 0
207.25 487 m 0
 163.292372881 487 145.5 447 145.5 375 c 2
 145.5 135 l 2
 145.5 63 163.292372881 23 207.25 23 c 0
 250.851694915 23 268.5 63 268.5 135 c 2
 268.5 375 l 2
 268.5 447 250.851694915 487 207.25 487 c 0
EndSplineSet
EndChar

StartChar: e
Encoding: 101 101 7
Width: 414
Flags: HW
LayerCount: 2
Fore
SplineSet
145.5 267.340820312 m 1
 268.5 283.045898438 l 1
 268.5 384 l 2
 268.5 446.161132812 251.284387644 487 207 487 c 0
 163.220338983 487 145.5 447 145.5 375 c 2
 145.5 267.340820312 l 1
145.5 239.350585938 m 1
 145.5 135 l 2
 145.5 63 163.220338983 23 207 23 c 0
 250.779661017 23 268.5 84.4285714286 268.5 195 c 1
 374 175 l 1
 374 49 288.141242938 -13 207 -13 c 0
 125.858757062 -13 40 49 40 175 c 2
 40 335 l 2
 40 461 125.858757062 523 207 523 c 0
 288.141242938 523 374 461 374 335 c 2
 374 270 l 1
 145.5 239.350585938 l 1
EndSplineSet
EndChar

StartChar: c
Encoding: 99 99 8
Width: 414
Flags: HW
LayerCount: 2
Fore
SplineSet
374 335 m 1
 268.5 315 l 1
 268.5 425.571428571 250.779661017 487 207 487 c 0
 165 487 148 447 148 375 c 2
 148 135 l 2
 148 63 165 23 207 23 c 0
 250.779661017 23 268.5 84.4285714286 268.5 195 c 1
 374 175 l 1
 374 49 288.141242938 -13 207 -13 c 0
 125.858757062 -13 40 49 40 175 c 2
 40 335 l 2
 40 461 125.858757062 523 207 523 c 0
 288.141242938 523 374 461 374 335 c 1
EndSplineSet
EndChar

StartChar: l
Encoding: 108 108 9
Width: 229
Flags: HW
LayerCount: 2
Fore
SplineSet
155.5 0 m 2
 85.9406779661 0 47.5 49 47.5 96 c 2
 47.5 650 l 1
 153 700 l 1
 153 83.5 l 2
 153 59.1086956522 163.888888889 50.5 181 50.5 c 2
 191.5 50.5 l 1
 191.5 0 l 1
 155.5 0 l 2
EndSplineSet
EndChar

StartChar: b
Encoding: 98 98 10
Width: 424
Flags: HW
LayerCount: 2
Fore
SplineSet
242 528 m 0
 316.707482993 528 386.5 456 386.5 340 c 2
 386.5 180 l 2
 386.5 64 316.707482993 -8 242 -8 c 0
 190.104492188 -8 146.338867188 49.2958984375 136.666992188 123.447265625 c 1
 75.5 0 l 1
 47.5 0 l 1
 47.5 700 l 1
 133 700 l 1
 133 414.734375 l 1
 152.3828125 479.25390625 193.663085938 528 242 528 c 0
153 320 m 2
 153 200 l 2
 153 99.0714285717 171.440677966 43 217 43 c 0
 264.338983051 43 283.5 84.7857142857 283.5 160 c 2
 283.5 360 l 2
 283.5 435.214285714 264.338983051 477 217 477 c 0
 171.440677966 477 153 420.928571428 153 320 c 2
EndSplineSet
EndChar

StartChar: d
Encoding: 100 100 11
Width: 424
Flags: HW
LayerCount: 2
Fore
SplineSet
179.5 528 m 0
 106.085034014 528 37.5 456 37.5 340 c 2
 37.5 180 l 2
 37.5 64 106.085034014 -8 179.5 -8 c 0
 232.627208798 -8 277.431578108 49.2958984375 287.333007812 123.447265625 c 1
 348.5 0 l 1
 376.5 0 l 1
 376.5 700 l 1
 291 700 l 1
 291 414.734375 l 1
 271.17262758 479.25390625 228.94555888 528 179.5 528 c 0
271 320 m 2
 271 200 l 2
 271 99.0714285717 252.559322034 43 207 43 c 0
 161.440677966 43 143 84.7857142857 143 160 c 2
 143 360 l 2
 143 435.214285714 161.440677966 477 207 477 c 0
 252.559322034 477 271 420.928571428 271 320 c 2
EndSplineSet
EndChar

StartChar: p
Encoding: 112 112 12
Width: 424
Flags: HW
LayerCount: 2
Fore
SplineSet
244.5 -28 m 0
 317.914965986 -28 386.5 44 386.5 160 c 2
 386.5 320 l 2
 386.5 436 317.914965986 508 244.5 508 c 0
 191.372791202 508 146.568421892 450.704101562 136.666992188 376.552734375 c 1
 75.5 500 l 1
 47.5 500 l 1
 47.5 -150 l 1
 133 -150 l 1
 133 85.265625 l 1
 152.82737242 20.74609375 195.05444112 -28 244.5 -28 c 0
153 180 m 2
 153 300 l 2
 153 400.928571428 171.440677966 457 217 457 c 0
 262.559322034 457 281 415.214285714 281 340 c 2
 281 140 l 2
 281 64.7857142857 262.559322034 23 217 23 c 0
 171.440677966 23 153 79.0714285714 153 180 c 2
EndSplineSet
EndChar

StartChar: q
Encoding: 113 113 13
Width: 424
Flags: HW
LayerCount: 2
Fore
SplineSet
179.5 -28 m 0
 106.085034014 -28 37.5 44.9574468085 37.5 162.5 c 2
 37.5 322.5 l 2
 37.5 436.957446808 106.085034014 508 179.5 508 c 0
 232.627208798 508 277.431578108 450.704101562 287.333007812 376.552734375 c 1
 348.5 500 l 1
 376.5 500 l 1
 376.5 -150 l 1
 291 -150 l 1
 291 85.265625 l 1
 271.17262758 20.74609375 228.94555888 -28 179.5 -28 c 0
271 180 m 2
 271 300 l 2
 271 400.928571428 252.559322034 457 207 457 c 0
 161.440677966 457 143 415.214285714 143 340 c 2
 143 140 l 2
 143 64.7857142857 161.440677966 23 207 23 c 0
 252.559322034 23 271 79.0714285714 271 180 c 2
EndSplineSet
EndChar

StartChar: i
Encoding: 105 105 14
Width: 198
Flags: HW
LayerCount: 2
Fore
SplineSet
150.5 565.25 m 1
 47.5 565.25 l 1
 47.5 665 l 1
 150.5 665 l 1
 150.5 565.25 l 1
150.5 0 m 1
 47.5 0 l 1
 47.5 500 l 1
 150.5 500 l 1
 150.5 0 l 1
EndSplineSet
EndChar

StartChar: a
Encoding: 97 97 15
Width: 434
Flags: HW
LayerCount: 2
Fore
SplineSet
290.743164062 111.01171875 m 1
 280.969343597 52.6780469093 240.486594621 -7.82028596111 167.734319617 -7.82028596111 c 0
 100.068319007 -7.82028596111 47.5 45.9883430263 47.5 137 c 0
 47.5 249.209091824 159.5 292.649414062 283.5 292.649414062 c 1
 283.5 317 l 2
 283.5 425.964285714 264.338983051 486.5 217 486.5 c 0
 169.661016949 486.5 150.5 425.964285714 150.5 317 c 1
 47.5 337 l 1
 47.5 469.218085106 134.644067796 522.5 217 522.5 c 0
 299.355932204 522.5 386.5 465.271276596 386.5 337 c 2
 386.5 0 l 1
 352.5 0 l 1
 290.743164062 111.01171875 l 1
283.5 264.909179688 m 1
 186.56779661 264.909179688 150.5 199.149893692 150.5 153.454101562 c 0
 150.5 116.861374656 169.014904992 50 217 50 c 0
 264.338983051 50 283.5 102.5 283.5 197 c 2
 283.5 264.909179688 l 1
EndSplineSet
EndChar

StartChar: f
Encoding: 102 102 17
Width: 362
Flags: HW
LayerCount: 2
Fore
SplineSet
278.076171875 673.400390625 m 0
 221.141017947 673.400390625 207.5 588.547245263 207.5 500 c 1
 334.5 500 l 1
 334.5 462 l 1
 207.5 462 l 1
 207.5 0 l 1
 102 0 l 1
 102 462 l 1
 27.5 462 l 1
 27.5 500 l 1
 102 500 l 1
 102 659.291992188 178.814287606 720 261.5 720 c 0
 289.5 720 303.865234375 713.916992188 317.5 708 c 1
 317.5 667 l 1
 317.5 667 299.580078125 673.400390625 278.076171875 673.400390625 c 0
EndSplineSet
EndChar

StartChar: g
Encoding: 103 103 18
Width: 424
Flags: HW
LayerCount: 2
Fore
SplineSet
271 228 m 2
 271 300 l 2
 271 405.75 252.559322034 464.5 207 464.5 c 0
 161.440677966 464.5 143 423.607142857 143 350 c 2
 143 178 l 2
 143 104.392857143 161.440677966 63.5 207 63.5 c 0
 252.559322034 63.5 271 122.25 271 228 c 2
179.5 20 m 0
 106.085034014 20 37.5 92 37.5 208 c 2
 37.5 320 l 2
 37.5 436 106.085034014 508 179.5 508 c 0
 242.864551303 508 277.431578108 460.704101562 287.333007812 376.552734375 c 1
 358.5 500 l 1
 376.5 500 l 1
 376.5 -22 l 2
 376.5 -154 289.355932204 -200 207 -200 c 0
 125.858757062 -200 40 -154 40 -22 c 1
 145.5 -2 l 1
 145.5 -116.352941176 163.220338983 -164 207 -164 c 0
 252.559322034 -164 271 -134 271 -62 c 2
 271 103.265625 l 1
 257.634831461 47 229.194692547 20 179.5 20 c 0
EndSplineSet
EndChar

StartChar: j
Encoding: 106 106 19
Width: 198
Flags: HW
LayerCount: 2
Fore
SplineSet
150.5 565.25 m 1
 47.5 565.25 l 1
 47.5 665 l 1
 150.5 665 l 1
 150.5 565.25 l 1
47.5 -40 m 2
 47.5 500 l 1
 150.5 500 l 1
 150.5 20 l 2
 150.5 -139.291992188 72.4817266949 -200 -11.5 -200 c 0
 -39.5 -200 -53.865234375 -193.916992188 -67.5 -188 c 1
 -67.5 -157 l 1
 -67.5 -157 -49.580078125 -163.400390625 -28.076171875 -163.400390625 c 0
 32.892578125 -163.400390625 47.5 -103.014648438 47.5 -40 c 2
EndSplineSet
EndChar

StartChar: k
Encoding: 107 107 20
Width: 412
Flags: HW
LayerCount: 2
Fore
SplineSet
153 0 m 1
 47.5 0 l 1
 47.5 700 l 1
 143 700 l 1
 143 220.895507812 l 1
 340.25 500 l 1
 384.5 500 l 1
 248.127929688 290.509765625 l 1
 384.5 0 l 1
 279 0 l 1
 175.25 225.387695312 l 1
 153 192.387695312 l 1
 153 0 l 1
EndSplineSet
EndChar

StartChar: v
Encoding: 118 118 21
Width: 388
Flags: HW
LayerCount: 2
Fore
SplineSet
239 30 m 1
 330.5 500 l 1
 360.5 500 l 1
 263 0 l 1
 147.5 0 l 1
 27.5 500 l 1
 133 500 l 1
 239 30 l 1
EndSplineSet
EndChar

StartChar: w
Encoding: 119 119 22
Width: 648
Flags: HW
LayerCount: 2
Fore
SplineSet
216.5 30 m 1
 290 500 l 1
 398 500 l 1
 496.5 30 l 1
 592.5 500 l 1
 620.5 500 l 1
 520.5 0 l 1
 420 0 l 1
 314 457.333007812 l 1
 240.5 0 l 1
 140 0 l 1
 27.5 500 l 1
 135.5 500 l 1
 216.5 30 l 1
EndSplineSet
EndChar

StartChar: y
Encoding: 121 121 23
Width: 388
Flags: HW
LayerCount: 2
Fore
SplineSet
250.5 90 m 1
 329.5 500 l 1
 360.5 500 l 1
 229.25 -160 l 1
 126.75 -160 l 1
 175 60 l 1
 155 60 l 1
 27.5 500 l 1
 133 500 l 1
 250.5 90 l 1
EndSplineSet
EndChar

StartChar: x
Encoding: 120 120 24
Width: 406
Flags: HW
LayerCount: 2
Fore
SplineSet
378.5 0 m 1
 273 0 l 1
 184 200 l 1
 75 0 l 1
 27.5 0 l 1
 167 232.614257812 l 1
 27.5 500 l 1
 133 500 l 1
 221.5 303 l 1
 340.5 500 l 1
 378.5 500 l 1
 238.5 270.385742188 l 1
 378.5 0 l 1
EndSplineSet
EndChar

StartChar: z
Encoding: 122 122 25
Width: 408
Flags: HW
LayerCount: 2
Fore
SplineSet
37.5 404.5 m 1
 37.5 500 l 1
 370.5 500 l 1
 370.5 402.5 l 1
 81.4501953124 95.5 l 1
 370.5 95.5 l 1
 370.5 0 l 1
 37.5 0 l 1
 37.5 105.5 l 1
 326.41015625 404.5 l 1
 37.5 404.5 l 1
EndSplineSet
EndChar

StartChar: s
Encoding: 115 115 26
Width: 414
Flags: HW
LayerCount: 2
Fore
SplineSet
143 382 m 0
 143 337.906777871 151.335566382 295.904492332 201.501953125 278 c 0
 260.472655957 254 376.5 259.361880384 376.5 132 c 0
 376.5 36 289.355932204 -16 207 -16 c 0
 124.644067796 -16 37.5 46 37.5 172 c 1
 145.5 192 l 1
 145.5 81.4285714286 163.220338983 20 207 20 c 0
 252.559322034 20 271 86.7692307692 271 132 c 0
 271 177.589248848 255.967553427 219.752929688 224.946289062 231 c 0
 159.945503018 258.495117188 37.5 251.388185845 37.5 372 c 0
 37.5 468 124.644067796 520 207 520 c 0
 289.355932204 520 376.5 468 376.5 332 c 1
 268.5 312 l 1
 268.5 422.571428571 250.779661017 484 207 484 c 0
 161.440677966 484 143 440.083333333 143 382 c 0
EndSplineSet
EndChar

StartChar: H
Encoding: 72 72 27
Width: 498
Flags: HW
LayerCount: 2
Fore
SplineSet
153 0 m 1
 47.5 0 l 1
 47.5 700 l 1
 153 700 l 1
 153 399 l 1
 345 399 l 1
 345 700 l 1
 450.5 700 l 1
 450.5 0 l 1
 345 0 l 1
 345 363 l 1
 153 363 l 1
 153 0 l 1
EndSplineSet
EndChar

StartChar: N
Encoding: 78 78 28
Width: 498
Flags: HW
LayerCount: 2
Fore
SplineSet
153 0 m 1
 47.5 0 l 1
 47.5 700 l 1
 193 700 l 1
 345 56.6669921875 l 1
 345 700 l 1
 450.5 700 l 1
 450.5 0 l 1
 315 0 l 1
 153 666.666992188 l 1
 153 0 l 1
EndSplineSet
EndChar

StartChar: M
Encoding: 77 77 29
Width: 662
Flags: HW
LayerCount: 2
Fore
SplineSet
331 26.36328125 m 1
 459 700 l 1
 614.5 700 l 1
 614.5 0 l 1
 509 0 l 1
 509 676.666992188 l 1
 372 0 l 1
 290 0 l 1
 153 676.666992188 l 1
 153 0 l 1
 47.5 0 l 1
 47.5 700 l 1
 203 700 l 1
 331 26.36328125 l 1
EndSplineSet
EndChar

StartChar: U
Encoding: 85 85 30
Width: 484
Flags: HW
LayerCount: 2
Fore
SplineSet
446.5 190 m 2
 446.5 34 334.603773585 -18 242 -18 c 0
 149.396226415 -18 37.5 34 37.5 190 c 2
 37.5 700 l 1
 143 700 l 1
 143 700 143 340 143 160 c 0
 143 68 187.234042553 36 242 36 c 0
 296.765957447 36 341 88 341 160 c 0
 341 700 l 1
 446.5 700 l 1
 446.5 190 l 2
EndSplineSet
EndChar

StartChar: O
Encoding: 79 79 31
Width: 484
Flags: HW
LayerCount: 2
Fore
SplineSet
242 718 m 0
 334.603773585 718 446.5 666 446.5 510 c 2
 446.5 190 l 2
 446.5 34 334.603773585 -18 242 -18 c 0
 149.396226415 -18 37.5 34 37.5 190 c 2
 37.5 510 l 2
 37.5 666 149.396226415 718 242 718 c 0
242 664 m 0
 187.234042553 664 143 632 143 540 c 2
 143 160 l 2
 143 68 187.234042553 36 242 36 c 0
 296.765957447 36 341 88 341 160 c 2
 341 540 l 2
 341 632 296.765957447 664 242 664 c 0
EndSplineSet
EndChar

StartChar: C
Encoding: 67 67 32
Width: 484
Flags: HW
LayerCount: 2
Fore
SplineSet
446.5 190 m 1
 446.5 34 334.603773585 -18 242 -18 c 0
 149.396226415 -18 37.5 34 37.5 190 c 2
 37.5 510 l 2
 37.5 666 149.396226415 718 242 718 c 0
 334.603773585 718 446.5 666 446.5 510 c 1
 341 490 l 1
 341 619.096774194 296.765957447 664 242 664 c 0
 187.234042553 664 143 632 143 540 c 2
 143 160 l 2
 143 68 187.234042553 36 242 36 c 0
 296.765957447 36 341 108.967741935 341 210 c 1
 446.5 190 l 1
EndSplineSet
EndChar

StartChar: G
Encoding: 71 71 33
Width: 484
Flags: HW
LayerCount: 2
Fore
SplineSet
251 348 m 1
 446.5 348 l 1
 446.5 190 l 2
 446.5 34 334.603773585 -18 242 -18 c 0
 149.396226415 -18 37.5 34 37.5 190 c 2
 37.5 510 l 2
 37.5 666 149.396226415 718 242 718 c 0
 334.603773585 718 446.5 666 446.5 510 c 1
 341 490 l 1
 341 619.096774194 296.765957447 664 242 664 c 0
 187.234042553 664 143 632 143 540 c 2
 143 160 l 2
 143 68 187.234042553 36 242 36 c 0
 296.765957447 36 341 88 341 160 c 2
 341 316 l 1
 241 316 l 1
 251 348 l 1
EndSplineSet
EndChar

StartChar: Q
Encoding: 81 81 34
Width: 484
Flags: HW
LayerCount: 2
Fore
SplineSet
242 664 m 0
 187.234042553 664 143 632 143 540 c 2
 143 160 l 2
 143 68 187.234042553 36 242 36 c 0
 296.765957447 36 341 88 341 160 c 2
 341 540 l 2
 341 632 296.765957447 664 242 664 c 0
242 718 m 0
 334.603773585 718 446.5 666 446.5 510 c 2
 446.5 190 l 2
 446.5 45.7124512969 351.179828049 -9.60545334316 263.903647363 -17.0986236985 c 1
 255.364557585 -28.0795822098 249.5 -40.1256193275 249.5 -52.5 c 0
 249.5 -81.8440867021 270.360364798 -93.1094074619 314.417102067 -93.1094074619 c 0
 364.864898961 -93.1094074619 394 -77 394 -77 c 1
 378 -165 l 1
 378 -165 343.79880363 -177.920559915 295.936616572 -177.920559915 c 0
 239.703339125 -177.920559915 171 -159.770538893 171 -81.5 c 0
 171 -55.0830334573 181.944514422 -31.6708500853 195.949317787 -12.5261274674 c 1
 113.229594291 3.26785869073 37.5 62.3746266673 37.5 190 c 2
 37.5 510 l 2
 37.5 666 149.396226415 718 242 718 c 0
EndSplineSet
EndChar

StartChar: S
Encoding: 83 83 35
Width: 484
Flags: HW
LayerCount: 2
Fore
SplineSet
37.5 530 m 0
 37.5 666 149.396226415 718 242 718 c 0
 334.603773585 718 446.5 666 446.5 510 c 1
 338.5 490 l 1
 338.5 619.096774194 295.382978724 664 242 664 c 0
 183.085106382 664 135.5 619.692307692 135.5 520 c 0
 135.5 432.81048235 182.322295443 386.261969906 241.651367188 371 c 0
 369.325542091 335 446.5 305.021484375 446.5 170 c 0
 446.5 34 334.603773585 -18 242 -18 c 0
 149.396226415 -18 37.5 34 37.5 190 c 1
 145.5 210 l 1
 145.5 108.967741935 188.617021276 36 242 36 c 0
 300.914893618 36 348.5 80.3076923077 348.5 180 c 0
 348.5 248.37286769 311.495323728 316.914201386 246.869140625 333 c 0
 121.072792606 367.564426277 37.5 402.383789062 37.5 530 c 0
EndSplineSet
EndChar

StartChar: A
Encoding: 65 65 36
Width: 498
Flags: HW
LayerCount: 2
Fore
SplineSet
166.51953125 172 m 1
 133 0 l 1
 27.5 0 l 1
 180 700 l 1
 330.5 700 l 1
 470.5 0 l 1
 365 0 l 1
 335.6796875 172 l 1
 166.51953125 172 l 1
169.98046875 203 m 1
 330.0703125 203 l 1
 254 670 l 1
 169.98046875 203 l 1
EndSplineSet
EndChar

StartChar: V
Encoding: 86 86 37
Width: 498
Flags: HW
LayerCount: 2
Fore
SplineSet
289 20 m 1
 432.5 700 l 1
 470.5 700 l 1
 323 0 l 1
 187.5 0 l 1
 27.5 700 l 1
 133 700 l 1
 289 20 l 1
EndSplineSet
EndChar

StartChar: W
Encoding: 87 87 38
Width: 820
Flags: HW
LayerCount: 2
Fore
SplineSet
254 30 m 1
 360 700 l 1
 476.5 700 l 1
 636 30 l 1
 760.5 700 l 1
 792.5 700 l 1
 662 0 l 1
 554.5 0 l 1
 390 671.538085938 l 1
 288 0 l 1
 172.5 0 l 1
 27.5 700 l 1
 133 700 l 1
 254 30 l 1
EndSplineSet
EndChar

StartChar: L
Encoding: 76 76 39
Width: 438
Flags: HW
LayerCount: 2
Fore
SplineSet
153 97.5 m 1
 400.5 97.5 l 1
 400.5 0 l 1
 47.5 0 l 1
 47.5 700 l 1
 153 700 l 1
 153 97.5 l 1
EndSplineSet
EndChar

StartChar: D
Encoding: 68 68 40
Width: 484
Flags: HW
LayerCount: 2
Fore
SplineSet
153 54 m 1
 242 54 l 2
 296.765957447 54 341 106 341 178 c 2
 341 522 l 2
 341 614 296.765957447 646 242 646 c 2
 153 646 l 1
 153 54 l 1
47.5 0 m 1
 47.5 700 l 1
 242 700 l 2
 334.603773585 700 446.5 648 446.5 492 c 2
 446.5 208 l 2
 446.5 52 334.603773585 0 242 0 c 2
 47.5 0 l 1
EndSplineSet
EndChar

StartChar: I
Encoding: 73 73 41
Width: 198
Flags: HW
LayerCount: 2
Fore
SplineSet
150.5 0 m 1
 47.5 0 l 1
 47.5 700 l 1
 150.5 700 l 1
 150.5 0 l 1
EndSplineSet
EndChar

StartChar: B
Encoding: 66 66 42
Width: 484
Flags: HW
LayerCount: 2
Fore
SplineSet
153 91.5 m 1
 237 91.5 l 2
 304.756816735 91.5 338.677734375 138.998837562 338.677734375 237.078125 c 0
 338.677734375 302.224433014 304.812955399 387 237 387 c 2
 153 387 l 1
 153 91.5 l 1
153 411 m 1
 202 411 l 2
 266.424704242 411 298.677734375 435.56676346 298.677734375 492.078125 c 0
 298.677734375 548.699346931 266.478255044 608.5 202 608.5 c 2
 153 608.5 l 1
 153 411 l 1
333.018554688 407.6484375 m 1
 398.5 387 446.5 336.19921875 446.5 244 c 2
 446.5 200 l 2
 446.5 44 334.603773585 0 242 0 c 2
 47.5 0 l 1
 47.5 700 l 1
 202 700 l 2
 333.647613149 700 399.631835938 635.813476562 399.631835938 530.719726562 c 0
 399.631835938 449 366.5 430 333.018554688 407.6484375 c 1
EndSplineSet
EndChar

StartChar: P
Encoding: 80 80 43
Width: 484
Flags: HW
LayerCount: 2
Fore
SplineSet
47.5 700 m 1
 242 700 l 2
 334.603773585 700 446.5 649.25 446.5 497 c 2
 446.5 453 l 2
 446.5 318.155405406 364.043956044 300 272 300 c 2
 153 300 l 1
 153 0 l 1
 47.5 0 l 1
 47.5 700 l 1
153 334 m 1
 237 334 l 2
 304.756635046 334 338.677734375 379.612774512 338.677734375 467.578125 c 0
 338.677734375 532.868295633 304.812824548 608.5 237 608.5 c 2
 153 608.5 l 1
 153 334 l 1
EndSplineSet
EndChar

StartChar: R
Encoding: 82 82 44
Width: 484
Flags: HW
LayerCount: 2
Fore
SplineSet
153 354 m 1
 242 354 l 2
 306.424704242 354 338.677734375 413.05095226 338.677734375 472.078125 c 0
 338.677734375 545.23754557 306.478255044 606.75 242 606.75 c 2
 153 606.75 l 1
 153 354 l 1
47.5 700 m 1
 242 700 l 2
 334.603773585 700 446.5 656.939393939 446.5 497 c 2
 446.5 483 l 2
 446.5 374.897545624 379.5 334.505859375 313.620117188 334.505859375 c 1
 446.5 0 l 1
 326.5 0 l 1
 214.526367188 320 l 1
 153 320 l 1
 153 0 l 1
 47.5 0 l 1
 47.5 700 l 1
EndSplineSet
EndChar

StartChar: T
Encoding: 84 84 45
Width: 468
Flags: HW
LayerCount: 2
Fore
SplineSet
181.5 602.5 m 1
 37.5 602.5 l 1
 37.5 700 l 1
 430.5 700 l 1
 430.5 602.5 l 1
 284.5 602.5 l 1
 284.5 0 l 1
 181.5 0 l 1
 181.5 602.5 l 1
EndSplineSet
EndChar

StartChar: J
Encoding: 74 74 46
Width: 293
Flags: HW
LayerCount: 2
Fore
SplineSet
140 150 m 2
 140 700 l 1
 245.5 700 l 1
 245.5 200 l 2
 245.5 40.7080078125 166.277740996 -20 81 -20 c 0
 53 -20 38.634765625 -13.9169921875 25 -8 c 1
 25 33 l 1
 25 33 42.919921875 26.599609375 64.423828125 26.599609375 c 0
 125.392578125 26.599609375 140 86.985351562 140 150 c 2
EndSplineSet
EndChar

StartChar: E
Encoding: 69 69 47
Width: 438
Flags: HW
LayerCount: 2
Fore
SplineSet
153 386 m 1
 386 386 l 1
 386 340 l 1
 153 340 l 1
 153 97.25 l 1
 408 97.25 l 1
 408 0 l 1
 47.5 0 l 1
 47.5 700 l 1
 408 700 l 1
 408 602.5 l 1
 153 602.5 l 1
 153 386 l 1
EndSplineSet
EndChar

StartChar: F
Encoding: 70 70 48
Width: 438
Flags: HW
LayerCount: 2
Fore
SplineSet
153 602.5 m 1
 153 386 l 1
 386 386 l 1
 386 340 l 1
 153 340 l 1
 153 0 l 1
 47.5 0 l 1
 47.5 700 l 1
 408 700 l 1
 408 602.5 l 1
 153 602.5 l 1
EndSplineSet
EndChar

StartChar: Y
Encoding: 89 89 49
Width: 498
Flags: HW
LayerCount: 2
Fore
SplineSet
271.5 300 m 1
 422.5 700 l 1
 470.5 700 l 1
 296.5 253 l 1
 296.5 0 l 1
 199 0 l 1
 199 253 l 1
 27.5 700 l 1
 133 700 l 1
 271.5 300 l 1
EndSplineSet
EndChar

StartChar: K
Encoding: 75 75 50
Width: 482
Flags: HW
LayerCount: 2
Fore
SplineSet
153 0 m 1
 47.5 0 l 1
 47.5 700 l 1
 153 700 l 1
 153 320.895507812 l 1
 406.5 700 l 1
 454.5 700 l 1
 253.127929688 379.509765625 l 1
 444.5 0 l 1
 327.5 0 l 1
 176 303.387695312 l 1
 153 272.387695312 l 1
 153 0 l 1
EndSplineSet
EndChar

StartChar: X
Encoding: 88 88 51
Width: 514
Flags: HW
LayerCount: 2
Fore
SplineSet
486.5 0 m 1
 380 0 l 1
 243.5 290.25 l 1
 75.5 0 l 1
 27.5 0 l 1
 222.5 326.864257812 l 1
 27.5 700 l 1
 134 700 l 1
 276.5 416.25 l 1
 447.5 700 l 1
 486.5 700 l 1
 297.5 379.635742188 l 1
 486.5 0 l 1
EndSplineSet
EndChar

StartChar: Z
Encoding: 90 90 52
Width: 478
Flags: HW
LayerCount: 2
Fore
SplineSet
37.5 604.5 m 1
 37.5 700 l 1
 440.5 700 l 1
 440.5 602.5 l 1
 81.4501953124 95.5 l 1
 440.5 95.5 l 1
 440.5 0 l 1
 37.5 0 l 1
 37.5 105.5 l 1
 396.41015625 604.5 l 1
 37.5 604.5 l 1
EndSplineSet
EndChar

StartChar: period
Encoding: 46 46 53
Width: 198
Flags: HW
LayerCount: 2
Fore
SplineSet
151.75 0 m 1
 46.25 0 l 1
 46.25 106 l 1
 151.75 106 l 1
 151.75 0 l 1
EndSplineSet
EndChar

StartChar: comma
Encoding: 44 44 54
Width: 198
Flags: HW
LayerCount: 2
Fore
SplineSet
90 -117.5 m 1
 55 -95 l 1
 103.474609375 0 l 1
 46.25 0 l 1
 46.25 106 l 1
 151.75 106 l 1
 151.75 0 l 1
 90 -117.5 l 1
EndSplineSet
EndChar

StartChar: question
Encoding: 63 63 55
Width: 484
Flags: HW
LayerCount: 2
Fore
SplineSet
282.011474609 0 m 1
 176.511474609 0 l 1
 176.511474609 106 l 1
 282.011474609 106 l 1
 282.011474609 0 l 1
275.098632812 297.969726562 m 1
 275.098632812 186 l 1
 178.598632812 186 l 1
 178.598632812 320 l 1
 253.634553417 320 331 375.834862385 331 499 c 0
 331 612.538461538 297.095238095 663 242 663 c 0
 186.904761905 663 153 615.516129032 153 479 c 1
 47.5 499 l 1
 47.5 655 149.564356436 707 242 707 c 0
 334.435643564 707 436.5 655 436.5 499 c 0
 436.5 378.994140625 357.114811924 316 275.098632812 297.969726562 c 1
EndSplineSet
EndChar

StartChar: colon
Encoding: 58 58 56
Width: 198
Flags: HW
LayerCount: 2
Fore
SplineSet
151.75 389.25 m 1
 46.25 389.25 l 1
 46.25 495.25 l 1
 151.75 495.25 l 1
 151.75 389.25 l 1
151.75 99 m 1
 46.25 99 l 1
 46.25 205 l 1
 151.75 205 l 1
 151.75 99 l 1
EndSplineSet
EndChar

StartChar: hyphen
Encoding: 45 45 57
Width: 347
Flags: HW
LayerCount: 2
Fore
SplineSet
40 300.5 m 1
 307 300.5 l 1
 307 217.5 l 1
 40 217.5 l 1
 40 300.5 l 1
EndSplineSet
EndChar
